<svg width="20" height="20" viewBox="0 0 20 20" fill="none" xmlns="http://www.w3.org/2000/svg">
<rect width="20" height="20" rx="10" fill="#E8E8E2"/>
<path d="M5.79995 4.60001C5.64082 4.60001 5.48821 4.66322 5.37569 4.77574C5.26317 4.88826 5.19995 5.04088 5.19995 5.20001C5.19995 5.35914 5.26317 5.51175 5.37569 5.62427C5.48821 5.73679 5.64082 5.80001 5.79995 5.80001H6.53195L6.71495 6.53321C6.71677 6.54165 6.71877 6.55005 6.72095 6.55841L7.53575 9.81641L6.99995 10.3516C6.24395 11.1076 6.77915 12.4 7.84835 12.4H12.9999C13.1591 12.4 13.3117 12.3368 13.4242 12.2243C13.5367 12.1117 13.5999 11.9591 13.5999 11.8C13.5999 11.6409 13.5367 11.4883 13.4242 11.3757C13.3117 11.2632 13.1591 11.2 12.9999 11.2H7.84835L8.44835 10.6H12.4C12.5113 10.5999 12.6205 10.5689 12.7153 10.5103C12.81 10.4517 12.8866 10.3679 12.9363 10.2682L14.7363 6.66821C14.782 6.57675 14.8036 6.47514 14.799 6.37301C14.7944 6.27088 14.7638 6.17162 14.7101 6.08464C14.6563 5.99767 14.5813 5.92587 14.492 5.87605C14.4027 5.82624 14.3022 5.80006 14.1999 5.80001H7.76795L7.58195 5.05421C7.54945 4.92446 7.47452 4.80929 7.36908 4.727C7.26363 4.64471 7.13371 4.60001 6.99995 4.60001H5.79995ZM13.5999 13.9C13.5999 14.1387 13.5051 14.3676 13.3363 14.5364C13.1676 14.7052 12.9386 14.8 12.7 14.8C12.4613 14.8 12.2323 14.7052 12.0636 14.5364C11.8948 14.3676 11.8 14.1387 11.8 13.9C11.8 13.6613 11.8948 13.4324 12.0636 13.2636C12.2323 13.0948 12.4613 13 12.7 13C12.9386 13 13.1676 13.0948 13.3363 13.2636C13.5051 13.4324 13.5999 13.6613 13.5999 13.9ZM7.89995 14.8C8.13865 14.8 8.36756 14.7052 8.53635 14.5364C8.70513 14.3676 8.79995 14.1387 8.79995 13.9C8.79995 13.6613 8.70513 13.4324 8.53635 13.2636C8.36756 13.0948 8.13865 13 7.89995 13C7.66126 13 7.43234 13.0948 7.26355 13.2636C7.09477 13.4324 6.99995 13.6613 6.99995 13.9C6.99995 14.1387 7.09477 14.3676 7.26355 14.5364C7.43234 14.7052 7.66126 14.8 7.89995 14.8Z" fill="#6D8434"/>
</svg>
