<svg width="34" height="34" viewBox="0 0 34 34" fill="none" xmlns="http://www.w3.org/2000/svg">
<rect width="34" height="34" rx="17" fill="#6D8434"/>
<path d="M10.7008 8.8999C10.4621 8.8999 10.2332 8.99472 10.0644 9.16351C9.8956 9.33229 9.80078 9.56121 9.80078 9.7999C9.80078 10.0386 9.8956 10.2675 10.0644 10.4363C10.2332 10.6051 10.4621 10.6999 10.7008 10.6999H11.7988L12.0733 11.7997C12.076 11.8124 12.079 11.825 12.0823 11.8375L13.3045 16.7245L12.5008 17.5273C11.3668 18.6613 12.1696 20.5999 13.7734 20.5999H21.5008C21.7395 20.5999 21.9684 20.5051 22.1372 20.3363C22.306 20.1675 22.4008 19.9386 22.4008 19.6999C22.4008 19.4612 22.306 19.2323 22.1372 19.0635C21.9684 18.8947 21.7395 18.7999 21.5008 18.7999H13.7734L14.6734 17.8999H20.6008C20.7679 17.8998 20.9316 17.8532 21.0738 17.7653C21.2159 17.6774 21.3307 17.5517 21.4054 17.4022L24.1054 12.0022C24.1739 11.865 24.2063 11.7126 24.1994 11.5594C24.1925 11.4062 24.1466 11.2573 24.066 11.1269C23.9854 10.9964 23.8728 10.8887 23.7388 10.814C23.6049 10.7392 23.4541 10.7 23.3008 10.6999H13.6528L13.3738 9.5812C13.325 9.38658 13.2126 9.21383 13.0545 9.09039C12.8963 8.96695 12.7014 8.89991 12.5008 8.8999H10.7008ZM22.4008 22.8499C22.4008 23.2079 22.2585 23.5513 22.0054 23.8045C21.7522 24.0577 21.4088 24.1999 21.0508 24.1999C20.6927 24.1999 20.3494 24.0577 20.0962 23.8045C19.843 23.5513 19.7008 23.2079 19.7008 22.8499C19.7008 22.4919 19.843 22.1485 20.0962 21.8953C20.3494 21.6421 20.6927 21.4999 21.0508 21.4999C21.4088 21.4999 21.7522 21.6421 22.0054 21.8953C22.2585 22.1485 22.4008 22.4919 22.4008 22.8499ZM13.8508 24.1999C14.2088 24.1999 14.5522 24.0577 14.8054 23.8045C15.0585 23.5513 15.2008 23.2079 15.2008 22.8499C15.2008 22.4919 15.0585 22.1485 14.8054 21.8953C14.5522 21.6421 14.2088 21.4999 13.8508 21.4999C13.4927 21.4999 13.1494 21.6421 12.8962 21.8953C12.643 22.1485 12.5008 22.4919 12.5008 22.8499C12.5008 23.2079 12.643 23.5513 12.8962 23.8045C13.1494 24.0577 13.4927 24.1999 13.8508 24.1999Z" fill="#E8E8E2"/>
</svg>
