<svg width="60" height="60" viewBox="0 0 60 60" fill="none" xmlns="http://www.w3.org/2000/svg">
<circle cx="30" cy="30" r="30" fill="#6D8434"/>
<path d="M50.5248 39.1172L50.0883 40.2992L42.0374 37.3327L42.474 36.1507L43.1383 36.3955L43.1466 36.373C42.8648 35.9239 42.6335 35.1992 42.9619 34.3099C43.5065 32.8353 45.0583 32.1665 46.95 32.8636C48.8416 33.5606 49.5869 35.0757 49.0423 36.5503C48.7139 37.4396 48.0894 37.849 47.538 37.9911L47.5297 38.0136L50.5248 39.1172ZM43.8554 34.8694C43.4979 35.8374 44.077 36.7286 45.3494 37.1975C46.633 37.6704 47.6416 37.3642 47.9991 36.3962C48.3816 35.3605 47.6394 34.4604 46.5134 34.0455C45.3874 33.6306 44.2379 33.8337 43.8554 34.8694Z" fill="#FAFAFA"/>
<path d="M47.049 42.2422C47.2548 41.9615 47.6615 41.8128 48.0103 42.0677C48.359 42.3226 48.3302 42.7475 48.1245 43.0281C47.9045 43.3281 47.5146 43.4742 47.1658 43.2193C46.817 42.9644 46.8291 42.5421 47.049 42.2422ZM46.5848 41.13L45.8397 42.1461L40.889 38.5279L41.6341 37.5118L46.5848 41.13Z" fill="#FAFAFA"/>
<path d="M40.928 43.6924C39.889 44.2058 38.7834 44.7895 37.8508 43.6611C37.1016 42.7546 37.4135 41.5497 38.5623 40.604C40.091 39.3456 41.3374 39.5163 42.2094 40.4772L41.2644 41.2551C40.7976 40.7845 40.2159 40.5328 39.2153 41.3565C38.539 41.9132 38.527 42.4826 38.7717 42.7786C39.2609 43.3706 39.8643 42.9516 40.6968 42.5461C41.5924 42.1041 42.7339 41.4132 43.6207 42.4861C44.2628 43.2631 44.0895 44.4472 42.9036 45.4234C41.6158 46.4835 40.431 46.2932 39.6857 45.5233L40.6307 44.7454C41.0014 45.062 41.5001 45.2887 42.2598 44.6633C42.8435 44.1828 42.975 43.7015 42.6998 43.3686C42.3022 42.8876 41.7436 43.2853 40.928 43.6924Z" fill="#FAFAFA"/>
<path d="M34.4065 47.1788C34.6536 47.7539 35.2728 48.342 36.2955 47.9947C37.4658 47.5972 37.6245 46.428 37.2523 45.3378C36.8801 44.2476 36.0502 43.4142 34.8685 43.8155C33.8459 44.1628 33.7113 44.9943 33.8869 45.657L32.6938 46.0622C32.3272 44.6913 33.0238 43.3521 34.5351 42.8389C36.2735 42.2485 37.825 43.1157 38.4454 44.9327C39.0658 46.7497 38.3674 48.3809 36.6403 48.9674C35.1291 49.4807 33.8109 48.8511 33.2134 47.5839L34.4065 47.1788Z" fill="#FAFAFA"/>
<path d="M29.262 43.5846C31.1784 43.7018 32.2595 45.1023 32.1438 47.0068C32.0281 48.9113 30.7855 50.1698 28.8691 50.0527C26.9527 49.9355 25.8716 48.535 25.9873 46.6305C26.103 44.726 27.3455 43.4675 29.262 43.5846ZM29.1994 44.6147C28.0016 44.5415 27.3213 45.4497 27.2449 46.7073C27.1678 47.977 27.7339 48.9494 28.9317 49.0226C30.1294 49.0958 30.809 48.1996 30.8861 46.9299C30.9625 45.6723 30.3972 44.6879 29.1994 44.6147Z" fill="#FAFAFA"/>
<path d="M20.1946 47.3901L19.0609 46.8401L21.7436 41.3261L22.8772 41.8761L22.5308 42.5883L22.5523 42.5987C23.0538 42.3085 23.836 42.1545 24.7861 42.6155C25.8118 43.1131 26.3328 44.0995 25.7185 45.362L23.8653 49.1711L22.7209 48.6158L24.4166 45.1304C24.7789 44.3859 24.6968 43.7592 23.9194 43.382C23.0449 42.9578 22.2263 43.2141 21.8273 44.0342L20.1946 47.3901Z" fill="#FAFAFA"/>
<path d="M14.6871 43.0438C13.9262 42.1948 13.8179 41.0851 14.8653 40.1501L18.0253 37.3291L18.8742 38.2763L15.9828 40.8576C15.3651 41.409 15.2035 42.0198 15.7801 42.6632C16.4288 43.3871 17.2839 43.4602 17.9642 42.8528L20.7483 40.3675L21.5892 41.3058L17.0148 45.3894L16.1739 44.4511L16.7647 43.9237L16.7487 43.9058C16.1744 43.9842 15.3918 43.8302 14.6871 43.0438Z" fill="#FAFAFA"/>
<path d="M12.0886 36.3297L12.5634 37.3793L15.5945 36.0149C16.2291 35.7292 16.1672 35.3886 15.7872 34.6648L16.7282 34.2412C16.8868 34.4462 17.0334 34.6829 17.1718 34.989C17.5873 35.9074 17.399 36.5975 16.2172 37.1295L13.0876 38.5383L13.4536 39.3474L12.5126 39.771L12.1466 38.9619L10.3849 39.7549L9.86062 38.596L11.6224 37.803L11.1476 36.7533L12.0886 36.3297Z" fill="#FAFAFA"/>
<path d="M8.42611 23.7142L8.69997 22.4843L17.0753 24.3473L16.8014 25.5771L16.1103 25.4234L16.1051 25.4468C16.4446 25.8543 16.7711 26.5416 16.565 27.4669C16.2234 29.0013 14.7756 29.8717 12.8077 29.434C10.8397 28.9963 9.89794 27.5943 10.2396 26.0599C10.4457 25.1346 11.0095 24.6453 11.5367 24.4307L11.542 24.4073L8.42611 23.7142ZM15.6046 27.032C15.8289 26.0247 15.1355 25.2189 13.8118 24.9244C12.4764 24.6274 11.5183 25.0658 11.2939 26.0732C11.054 27.1508 11.9101 27.9436 13.0815 28.2041C14.2529 28.4647 15.3646 28.1096 15.6046 27.032Z" fill="#FAFAFA"/>
<path d="M11.4424 20.1526C11.2761 20.4583 10.8931 20.6601 10.5134 20.4542C10.1336 20.2482 10.1052 19.8233 10.2715 19.5176C10.4492 19.1908 10.8159 18.9938 11.1957 19.1997C11.5754 19.4057 11.6201 19.8258 11.4424 20.1526ZM12.0514 21.1927L12.6535 20.0858L18.0439 23.0091L17.4418 24.1159L12.0514 21.1927Z" fill="#FAFAFA"/>
<path d="M17.3269 17.8758C18.2897 17.2308 19.3092 16.5073 20.3816 17.504C21.243 18.3046 21.0915 19.54 20.0765 20.6281C18.7259 22.0759 17.4679 22.0699 16.4777 21.2314L17.3126 20.3364C17.837 20.7419 18.4466 20.9152 19.3306 19.9676C19.9282 19.327 19.8655 18.7609 19.5842 18.4995C19.0217 17.9766 18.4784 18.471 17.7063 18.9821C16.8762 19.5376 15.8352 20.3721 14.8156 19.4244C14.0773 18.7382 14.0941 17.5415 15.1418 16.4183C16.2796 15.1986 17.4791 15.2322 18.3187 15.8979L17.4838 16.7929C17.0749 16.5276 16.5508 16.3681 15.8796 17.0876C15.3639 17.6404 15.2965 18.1348 15.6129 18.4289C16.07 18.8538 16.5717 18.3863 17.3269 17.8758Z" fill="#FAFAFA"/>
<path d="M23.243 13.5934C22.9202 13.0571 22.2269 12.5583 21.2607 13.0409C20.1549 13.5931 20.1561 14.7729 20.6728 15.8025C21.1895 16.8322 22.1247 17.5455 23.2412 16.9878C24.2074 16.5053 24.228 15.6634 23.9642 15.0306L25.0914 14.4676C25.6406 15.7761 25.1318 17.1971 23.704 17.9102C22.0615 18.7306 20.4067 18.0816 19.5456 16.3655C18.6845 14.6494 19.1553 12.9388 20.7871 12.1238C22.2149 11.4107 23.6064 11.8559 24.3702 13.0304L23.243 13.5934Z" fill="#FAFAFA"/>
<path d="M28.8224 16.4354C26.9074 16.5748 25.6486 15.3309 25.5083 13.4281C25.3681 11.5253 26.4311 10.1123 28.346 9.97288C30.2609 9.83344 31.5198 11.0773 31.66 12.9801C31.8003 14.883 30.7373 16.2959 28.8224 16.4354ZM28.7465 15.4061C29.9433 15.319 30.496 14.3282 30.4034 13.0716C30.3099 11.8031 29.6187 10.9149 28.4219 11.0021C27.225 11.0892 26.6715 12.068 26.765 13.3366C26.8576 14.5932 27.5497 15.4933 28.7465 15.4061Z" fill="#FAFAFA"/>
<path d="M37.349 11.4476L38.5456 11.8424L36.6209 17.6645L35.4243 17.2697L35.6729 16.5178L35.6501 16.5102C35.1918 16.8645 34.4371 17.121 33.4343 16.7901C32.3517 16.433 31.7041 15.5244 32.1448 14.1913L33.4744 10.1694L34.6823 10.5679L33.4658 14.248C33.2059 15.0342 33.3706 15.6445 34.1912 15.9152C35.1142 16.2197 35.8914 15.8569 36.1776 14.991L37.349 11.4476Z" fill="#FAFAFA"/>
<path d="M43.3935 15.008C44.2592 15.7498 44.5122 16.8358 43.5967 17.9003L40.8346 21.112L39.8688 20.2842L42.3961 17.3456C42.936 16.7178 43.0161 16.091 42.36 15.5288C41.6219 14.8963 40.7647 14.9361 40.17 15.6275L37.7366 18.457L36.7799 17.6371L40.7782 12.988L41.735 13.8079L41.2185 14.4084L41.2368 14.424C41.7958 14.2709 42.5917 14.3208 43.3935 15.008Z" fill="#FAFAFA"/>
<path d="M46.8445 21.2669L46.2328 20.2907L43.4128 22.0505C42.8223 22.4189 42.9295 22.7481 43.4035 23.4141L42.528 23.9604C42.3433 23.7787 42.1662 23.5639 41.9877 23.2792C41.4524 22.4251 41.5461 21.7159 42.6456 21.0298L45.5572 19.2129L45.0857 18.4605L45.9612 17.9142L46.4328 18.6666L48.0718 17.6438L48.7473 18.7216L47.1083 19.7444L47.7201 20.7205L46.8445 21.2669Z" fill="#FAFAFA"/>
<path d="M32.9166 27.6667C27.6666 28.8333 26.4416 32.4325 25.2283 35.4483L26.3308 35.8333L26.885 34.4917C27.165 34.5908 27.4566 34.6667 27.6666 34.6667C34.0833 34.6667 35.8333 24.75 35.8333 24.75C35.25 25.9167 31.1666 26.0625 28.25 26.6458C25.3333 27.2292 24.1666 29.7083 24.1666 30.875C24.1666 32.0417 25.1875 33.0625 25.1875 33.0625C27.0833 27.6667 32.9166 27.6667 32.9166 27.6667Z" fill="#FAFAFA"/>
</svg>
