<svg aria-hidden="true" style="position:absolute;width:0;height:0;overflow:hidden" xmlns="http://www.w3.org/2000/svg"><defs><symbol id="icon-cart" viewBox="0 0 32 32"><path fill="#6d8434" style="fill:var(--color1, #6d8434)" d="M16 0c8.837 0 16 7.163 16 16s-7.163 16-16 16S0 24.837 0 16 7.163 0 16 0z"/><path fill="#e8e8e2" style="fill:var(--color2, #e8e8e2)" d="M10.071 8.376a.846.846 0 1 0 0 1.694h1.033l.258 1.035.008.036 1.15 4.6-.756.756c-1.067 1.067-.312 2.892 1.198 2.892h7.273a.846.846 0 1 0 0-1.694h-7.273l.847-.847h5.579a.845.845 0 0 0 .757-.469l2.541-5.082a.848.848 0 0 0-.758-1.225h-9.08l-.263-1.053a.848.848 0 0 0-.822-.641h-1.694zm11.012 13.13a1.27 1.27 0 1 1-2.54 0 1.27 1.27 0 0 1 2.54 0zm-8.047 1.27a1.27 1.27 0 1 0 0-2.54 1.27 1.27 0 0 0 0 2.54z"/></symbol><symbol id="icon-cartLight" viewBox="0 0 32 32"><path fill="#e8e8e2" style="fill:var(--color2, #e8e8e2)" d="M16 0c8.837 0 16 7.163 16 16s-7.163 16-16 16S0 24.837 0 16 7.163 0 16 0z"/><path fill="#6d8434" style="fill:var(--color1, #6d8434)" d="M9.28 7.36a.96.96 0 1 0 0 1.92h1.171l.293 1.173a.467.467 0 0 0 .01.04l1.304 5.213-.857.856c-1.21 1.21-.353 3.277 1.357 3.277H20.8a.96.96 0 1 0 0-1.92h-8.242l.96-.96h6.323a.955.955 0 0 0 .858-.531l2.88-5.76a.953.953 0 0 0-.042-.933.964.964 0 0 0-.816-.456H12.43l-.298-1.193a.96.96 0 0 0-.932-.727H9.28zm12.48 14.88a1.44 1.44 0 1 1-2.88 0 1.44 1.44 0 0 1 2.88 0zm-9.12 1.44a1.44 1.44 0 1 0 0-2.88 1.44 1.44 0 0 0 0 2.88z"/></symbol><symbol id="icon-checked" viewBox="0 0 32 32"><path fill="#6d8434" style="fill:var(--color1, #6d8434)" d="M16 0c8.837 0 16 7.163 16 16s-7.163 16-16 16S0 24.837 0 16 7.163 0 16 0z"/><path fill="none" stroke="#e8e8e2" style="stroke:var(--color2, #e8e8e2)" stroke-linejoin="round" stroke-linecap="round" stroke-width="1.882" d="m21.647 11.765-7.765 7.765-3.529-3.529"/></symbol><symbol id="icon-discount" viewBox="0 0 32 32"><path fill="#6d8434" style="fill:var(--color1, #6d8434)" d="M32 16c0 8.837-7.163 16-16 16S0 24.837 0 16 7.163 0 16 0s16 7.163 16 16z"/><path fill="#fafafa" style="fill:var(--color3, #fafafa)" d="m26.947 20.863-.233.63-4.294-1.582.233-.63.354.131.004-.012a1.224 1.224 0 0 1-.099-1.1c.29-.786 1.118-1.143 2.127-.771s1.406 1.18 1.116 1.966c-.175.474-.508.693-.802.768l-.004.012 1.597.589zm-3.557-2.266c-.191.516.118.992.797 1.242.685.252 1.223.089 1.413-.427.204-.552-.192-1.032-.792-1.254s-1.214-.113-1.418.439zM25.093 22.529c.11-.15.327-.229.513-.093s.171.363.061.512c-.117.16-.325.238-.511.102s-.18-.361-.062-.521zm-.248-.593-.397.542-2.64-1.93.397-.542 2.64 1.93zM21.828 23.303c-.554.274-1.144.585-1.641-.017-.4-.483-.233-1.126.379-1.63.815-.671 1.48-.58 1.945-.068l-.504.415c-.249-.251-.559-.385-1.093.054-.361.297-.367.601-.237.758.261.316.583.092 1.027-.124.478-.236 1.086-.604 1.559-.032.342.414.25 1.046-.382 1.567-.687.565-1.319.464-1.716.053l.504-.415c.198.169.464.29.869-.044.311-.256.381-.513.235-.691-.212-.257-.51-.044-.945.173zM18.35 25.162c.132.307.462.62 1.007.435.624-.212.709-.836.51-1.417s-.641-1.026-1.271-.812c-.545.185-.617.629-.524.982l-.636.216c-.196-.731.176-1.445.982-1.719.927-.315 1.755.148 2.085 1.117s-.042 1.839-.963 2.152c-.806.274-1.509-.062-1.828-.738l.636-.216zM15.606 23.245c1.022.063 1.599.809 1.537 1.825s-.724 1.687-1.746 1.624c-1.022-.063-1.599-.809-1.537-1.825s.724-1.687 1.746-1.624zm-.033.549c-.639-.039-1.002.445-1.042 1.116-.041.677.261 1.196.9 1.235s1.001-.439 1.042-1.116c.041-.671-.261-1.196-.9-1.235zM10.77 25.275l-.605-.293 1.431-2.941.605.293-.185.38.011.006c.267-.155.685-.237 1.191.009.547.265.825.791.497 1.465l-.988 2.032-.61-.296.904-1.859c.193-.397.149-.731-.265-.932-.466-.226-.903-.09-1.116.348l-.871 1.79zM7.833 22.957c-.406-.453-.464-1.045.095-1.543l1.685-1.505.453.505-1.542 1.377c-.329.294-.416.62-.108.963.346.386.802.425 1.165.101l1.485-1.326.448.5-2.44 2.178-.448-.5.315-.281-.009-.01c-.306.042-.724-.04-1.1-.46zM6.447 19.376l.253.56 1.617-.728c.338-.152.305-.334.103-.72l.502-.226c.085.109.163.236.237.399.222.49.121.858-.509 1.142l-1.669.751.195.432-.502.226-.195-.432-.94.423-.28-.618.94-.423-.253-.56.502-.226zM4.494 12.648l.146-.656 4.467.994-.146.656-.369-.082-.003.012c.181.217.355.584.245 1.077-.182.818-.954 1.283-2.004 1.049s-1.552-.981-1.37-1.8c.11-.493.411-.754.692-.869l.003-.012-1.662-.37zm3.828 1.769c.12-.537-.25-.967-.956-1.124-.712-.158-1.223.075-1.343.613-.128.575.329.998.953 1.136s1.218-.05 1.346-.625zM6.103 10.748c-.089.163-.293.271-.495.161s-.218-.336-.129-.5c.095-.174.29-.279.493-.17s.226.334.132.508zm.324.555.321-.59 2.875 1.559-.321.59-2.875-1.559zM9.241 9.534c.514-.344 1.057-.73 1.629-.198.459.427.379 1.086-.163 1.666-.72.772-1.391.769-1.919.322l.445-.477c.28.216.605.309 1.076-.197.319-.342.285-.644.135-.783-.3-.279-.59-.015-1.002.257-.443.296-.998.741-1.542.236-.394-.366-.385-1.004.174-1.603.607-.65 1.247-.633 1.694-.278l-.445.477c-.218-.142-.498-.227-.856.157-.275.295-.311.559-.142.715.244.227.511-.023.914-.295z"/><path fill="#fafafa" style="fill:var(--color3, #fafafa)" d="M12.396 7.25c-.172-.286-.542-.552-1.057-.295-.59.295-.589.924-.314 1.473s.774.93 1.37.632c.515-.257.526-.706.386-1.044l.601-.3c.293.698.022 1.456-.74 1.836-.876.438-1.759.091-2.218-.824s-.208-1.828.662-2.262c.761-.38 1.504-.143 1.911.484l-.601.3zM15.372 8.766c-1.021.074-1.693-.589-1.768-1.604s.492-1.768 1.513-1.843 1.693.589 1.767 1.604c.075 1.015-.492 1.768-1.513 1.843zm-.041-.549c.638-.046.933-.575.884-1.245-.05-.677-.418-1.15-1.057-1.104s-.934.568-.884 1.245c.049.67.418 1.15 1.057 1.104zM19.919 6.105l.638.211-1.026 3.105-.638-.211.133-.401-.012-.004c-.244.189-.647.326-1.182.149-.577-.19-.923-.675-.688-1.386l.709-2.145.644.213-.649 1.963c-.139.419-.051.745.387.889.492.162.907-.031 1.059-.493l.625-1.89zM23.143 8.004c.462.396.597.975.108 1.543l-1.473 1.713-.515-.441 1.348-1.567c.288-.335.331-.669-.019-.969-.394-.337-.851-.316-1.168.053l-1.298 1.509-.51-.437 2.132-2.48.51.437-.275.32.01.008c.298-.082.723-.055 1.15.311zM24.984 11.342l-.326-.521-1.504.939c-.315.196-.258.372-.005.727l-.467.291a1.917 1.917 0 0 1-.288-.363c-.285-.456-.236-.834.351-1.2l1.553-.969-.251-.401.467-.291.252.401.874-.546.36.575-.874.546.326.521-.467.291zM17.556 14.756c-2.8.622-3.453 2.542-4.1 4.15l.588.205.296-.716c.149.053.305.093.417.093 3.422 0 4.356-5.289 4.356-5.289-.311.622-2.489.7-4.044 1.011s-2.178 1.633-2.178 2.256.544 1.167.544 1.167c1.011-2.878 4.122-2.878 4.122-2.878z"/></symbol></defs></svg>